<svg  xmlns="http://www.w3.org/2000/svg" xmlns:xlink="http://www.w3.org/1999/xlink" width="985" height="300" viewBox="0 0 1009 324"><path transform="translate(0 100)" d="M43.4,-85L43.4,-67.6L8.8,-67.6L8.8,-16.9L20.8,-16.9L20.8,-22.4L43.4,-22.4L43.4,8.9L56.1,8.9L56.1,-22.4L78.8,-22.4L78.8,-17.4L91.4,-17.4L91.4,-67.6L56.1,-67.6L56.1,-85L43.4,-85ZM20.8,-34.2L20.8,-55.8L43.4,-55.8L43.4,-34.2L20.8,-34.2ZM78.8,-34.2L56.1,-34.2L56.1,-55.8L78.8,-55.8L78.8,-34.2Z"></path><path transform="translate(100 100)" d="M41.2,-82.2C43.5,-77.9 45.8,-72.2 46.9,-68.1L4.4,-68.1L4.4,-56.4L20.2,-56.4C25.6,-42.3 32.6,-30.2 41.6,-20.2C31.2,-12.1 18.2,-6.4 2.5,-2.5C4.9,0.3 8.5,5.9 9.8,8.8C25.9,4.1 39.4,-2.6 50.5,-11.6C61.1,-2.7 74,3.9 89.8,8.1C91.6,4.8 95.2,-0.4 97.9,-3.1C82.8,-6.5 70.2,-12.5 59.8,-20.4C68.7,-30.1 75.5,-42 80.6,-56.4L96,-56.4L96,-68.1L52.4,-68.1L60.9,-70.8C59.7,-74.9 56.7,-81.3 54,-86L41.2,-82.2ZM50.7,-28.6C43,-36.5 37,-45.9 32.6,-56.4L67.2,-56.4C63.1,-45.4 57.7,-36.2 50.7,-28.6Z"></path><path transform="translate(200 100)" d="M31.9,-34.1C29,-25.2 25,-17.4 19.7,-11.5L19.7,-48.8C23.7,-44.3 27.9,-39.2 31.9,-34.1ZM7.7,-79.4L7.7,8.8L19.7,8.8L19.7,-7.9C22.2,-6.3 25.3,-4.1 26.7,-2.9C31.9,-8.7 36.1,-15.9 39.5,-24.2C41.7,-21.1 43.7,-18.3 45.2,-15.8L52.4,-24.2C50.1,-27.6 47,-31.8 43.4,-36.2C45.7,-44.3 47.3,-53.1 48.5,-62.6L37.9,-63.8C37.2,-57.7 36.3,-51.8 35.1,-46.3C31.9,-50 28.6,-53.7 25.5,-57L19.7,-50.8L19.7,-68.1L80.5,-68.1L80.5,-5.7C80.5,-3.8 79.7,-3.1 77.7,-3C75.6,-3 68.2,-2.9 61.9,-3.4C63.7,-0.2 65.8,5.4 66.4,8.7C76,8.8 82.3,8.5 86.7,6.5C91,4.6 92.5,1.2 92.5,-5.5L92.5,-79.4L7.7,-79.4ZM47,-49.9C51.2,-45.3 55.6,-40 59.5,-34.6C56.1,-23.8 51.1,-14.8 44.2,-8.4C46.8,-7 51.5,-3.6 53.5,-2C59,-7.8 63.4,-15.2 66.8,-23.8C69.2,-20 71.1,-16.4 72.5,-13.3L80.4,-20.9C78.3,-25.4 75,-30.8 71,-36.3C73.2,-44.3 74.8,-53.1 76,-62.5L65.3,-63.6C64.7,-57.8 63.8,-52.3 62.7,-47C60,-50.4 57.1,-53.6 54.2,-56.5L47,-49.9Z"></path><path transform="translate(300 100)" d="M43.5,-36.6L43.5,-31.3L6.3,-31.3L6.3,-19.9L43.5,-19.9L43.5,-5C43.5,-3.6 42.9,-3.2 40.9,-3.2C38.9,-3.2 31.3,-3.2 25.2,-3.4C27.2,-0.2 29.6,5.2 30.4,8.8C38.7,8.8 45.1,8.6 49.8,6.8C54.8,5 56.3,1.7 56.3,-4.7L56.3,-19.9L93.8,-19.9L93.8,-31.3L56.3,-31.3L56.3,-32.9C64.8,-37.8 72.7,-44.3 78.6,-50.4L70.6,-56.6L67.8,-56L23.4,-56L23.4,-44.9L55.7,-44.9C51.9,-41.8 47.6,-38.7 43.5,-36.6ZM40.4,-82.1C41.8,-80.2 43.1,-77.8 44.2,-75.5L6.7,-75.5L6.7,-52.5L18.5,-52.5L18.5,-64.2L80.7,-64.2L80.7,-52.5L93.1,-52.5L93.1,-75.5L58.5,-75.5C57.1,-78.7 54.8,-82.7 52.4,-85.7L40.4,-82.1Z"></path><path transform="translate(400 100)" d="M11.5,-76.2C17.2,-71.5 24.6,-64.8 28,-60.4L36.1,-69.1C32.5,-73.4 24.7,-79.7 19.2,-84L11.5,-76.2ZM3.8,-54.1L3.8,-42.2L18.4,-42.2L18.4,-12C18.4,-7.5 15.2,-4.2 12.9,-2.7C14.9,-0.1 17.9,5.4 18.8,8.5C20.7,6 24.4,3.2 44.6,-11.5C43.4,-14 41.5,-19.1 40.8,-22.6L30.6,-15.4L30.6,-54.1L3.8,-54.1ZM60.7,-84.5L60.7,-53.4L36.7,-53.4L36.7,-40.9L60.7,-40.9L60.7,9L73.6,9L73.6,-40.9L96.7,-40.9L96.7,-53.4L73.6,-53.4L73.6,-84.5L60.7,-84.5Z"></path><path transform="translate(500 100)" d="M62,-74.3L62,-19L73.5,-19L73.5,-74.3L62,-74.3ZM81.1,-84L81.1,-5C81.1,-3.3 80.5,-2.8 78.7,-2.7C76.9,-2.7 71.2,-2.7 65.6,-2.9C67.2,0.4 69,5.7 69.4,9C78,9 83.9,8.6 87.7,6.7C91.6,4.8 92.8,1.6 92.8,-5L92.8,-84L81.1,-84ZM29.5,-77.7C34.5,-73.5 40.6,-67.4 43.3,-63.4L51.8,-70.7C48.9,-74.6 42.5,-80.3 37.5,-84.2L29.5,-77.7ZM43.1,-47.8C40.3,-41.1 36.8,-34.8 32.6,-29C31.2,-34.8 30,-41.4 29.1,-48.5L58.7,-51.8L57.6,-63.1L27.9,-59.9C27.3,-67.9 27,-76.3 27.1,-84.8L14.8,-84.8C14.9,-76 15.3,-67.1 16,-58.6L2.6,-57.1L3.7,-45.7L17.2,-47.2C18.5,-36.4 20.5,-26.4 23.1,-17.9C17,-11.8 10.1,-6.7 2.6,-2.7C5.1,-0.5 9.3,4.2 11,6.7C16.8,3.1 22.4,-1.2 27.7,-6.2C32.1,2.8 37.8,8.2 44.9,8.2C53.9,8.2 57.7,3.9 59.6,-13.6C56.5,-14.8 52.3,-17.5 49.8,-20.2C49.2,-8.4 48,-3.8 45.8,-3.8C42.6,-3.8 39.4,-8.2 36.6,-15.6C43.7,-24.1 49.8,-33.8 54.4,-44.3L43.1,-47.8Z"></path><path transform="translate(0 200)" d="M23.8,-0L38.6,-0L38.6,-61.7L59.5,-61.7L59.5,-74.1L3,-74.1L3,-61.7L23.8,-61.7L23.8,-0Z"></path><path transform="translate(62 200)" d="M7.9,-0L22.6,-0L22.6,-38.5C26.7,-42.6 29.7,-44.8 34.2,-44.8C39.7,-44.8 42.1,-41.8 42.1,-33.1L42.1,-0L56.8,-0L56.8,-34.9C56.8,-49 51.6,-57.4 39.5,-57.4C31.9,-57.4 26.3,-53.4 21.9,-49.2L22.6,-59.7L22.6,-79.8L7.9,-79.8L7.9,-0Z"></path><path transform="translate(126 200)" d="M32.3,1.4C39.2,1.4 46.3,-1 51.8,-4.8L46.8,-13.8C42.7,-11.3 38.8,-10 34.3,-10C25.9,-10 19.9,-14.7 18.7,-23.8L53.2,-23.8C53.6,-25.2 53.9,-27.9 53.9,-30.6C53.9,-46.2 45.9,-57.4 30.5,-57.4C17.2,-57.4 4.4,-46.1 4.4,-28C4.4,-9.5 16.6,1.4 32.3,1.4ZM18.4,-33.7C19.6,-41.8 24.8,-46 30.7,-46C38,-46 41.3,-41.2 41.3,-33.7L18.4,-33.7Z"></path><path transform="translate(184 200)" d=""></path><path transform="translate(207 200)" d="M9.1,-0L23.9,-0L23.9,-26.3L33.8,-26.3C49.7,-26.3 62.4,-33.9 62.4,-50.8C62.4,-68.3 49.8,-74.1 33.4,-74.1L9.1,-74.1L9.1,-0ZM23.9,-38L23.9,-62.3L32.3,-62.3C42.5,-62.3 47.9,-59.4 47.9,-50.8C47.9,-42.3 43,-38 32.8,-38L23.9,-38Z"></path><path transform="translate(274 200)" d="M7.9,-0L22.6,-0L22.6,-33.4C25.8,-41.5 31,-44.4 35.3,-44.4C37.7,-44.4 39.3,-44.1 41.3,-43.5L43.7,-56.2C42.1,-56.9 40.3,-57.4 37.2,-57.4C31.4,-57.4 25.4,-53.4 21.3,-46.1L21,-46.1L19.9,-56L7.9,-56L7.9,-0Z"></path><path transform="translate(317 200)" d="M31.3,1.4C45.3,1.4 58.2,-9.4 58.2,-28C58.2,-46.6 45.3,-57.4 31.3,-57.4C17.2,-57.4 4.4,-46.6 4.4,-28C4.4,-9.4 17.2,1.4 31.3,1.4ZM31.3,-10.6C23.6,-10.6 19.4,-17.4 19.4,-28C19.4,-38.5 23.6,-45.4 31.3,-45.4C38.9,-45.4 43.2,-38.5 43.2,-28C43.2,-17.4 38.9,-10.6 31.3,-10.6Z"></path><path transform="translate(380 200)" d="M4,22.9C18.1,22.9 22.8,13.5 22.8,1.4L22.8,-56L8,-56L8,1.8C8,8.1 6.6,11.3 1.9,11.3C0.2,11.3 -1.3,11 -2.8,10.5L-5.4,21.3C-3.2,22.2 -0.3,22.9 4,22.9ZM15.3,-65.1C20.4,-65.1 23.9,-68.2 23.9,-73.1C23.9,-77.9 20.4,-81.1 15.3,-81.1C10.3,-81.1 6.8,-77.9 6.8,-73.1C6.8,-68.2 10.3,-65.1 15.3,-65.1Z"></path><path transform="translate(411 200)" d="M32.3,1.4C39.2,1.4 46.3,-1 51.8,-4.8L46.8,-13.8C42.7,-11.3 38.8,-10 34.3,-10C25.9,-10 19.9,-14.7 18.7,-23.8L53.2,-23.8C53.6,-25.2 53.9,-27.9 53.9,-30.6C53.9,-46.2 45.9,-57.4 30.5,-57.4C17.2,-57.4 4.4,-46.1 4.4,-28C4.4,-9.5 16.6,1.4 32.3,1.4ZM18.4,-33.7C19.6,-41.8 24.8,-46 30.7,-46C38,-46 41.3,-41.2 41.3,-33.7L18.4,-33.7Z"></path><path transform="translate(469 200)" d="M31.7,1.4C37.9,1.4 44.7,-0.7 50,-5.4L44.2,-15.1C41.1,-12.5 37.4,-10.6 33.3,-10.6C25.2,-10.6 19.4,-17.4 19.4,-28C19.4,-38.5 25.2,-45.4 33.8,-45.4C36.9,-45.4 39.5,-44.1 42.3,-41.8L49.3,-51.1C45.2,-54.8 39.9,-57.4 33,-57.4C17.8,-57.4 4.4,-46.6 4.4,-28C4.4,-9.4 16.3,1.4 31.7,1.4Z"></path><path transform="translate(521 200)" d="M28.4,1.4C33.3,1.4 37.2,0.2 40.3,-0.7L37.8,-11.4C36.3,-10.8 34.1,-10.2 32.3,-10.2C27.3,-10.2 24.6,-13.2 24.6,-19.6L24.6,-44.4L38.5,-44.4L38.5,-56L24.6,-56L24.6,-71.1L12.5,-71.1L10.8,-56L2.1,-55.3L2.1,-44.4L10,-44.4L10,-19.5C10,-7.1 15.1,1.4 28.4,1.4Z"></path><path transform="translate(563 200)" d=""></path><path transform="translate(586 200)" d="M9.1,-0L23.9,-0L23.9,-30L50.2,-30L50.2,-42.4L23.9,-42.4L23.9,-61.7L54.7,-61.7L54.7,-74.1L9.1,-74.1L9.1,-0Z"></path><path transform="translate(642 200)" d="M31.3,1.4C45.3,1.4 58.2,-9.4 58.2,-28C58.2,-46.6 45.3,-57.4 31.3,-57.4C17.2,-57.4 4.4,-46.6 4.4,-28C4.4,-9.4 17.2,1.4 31.3,1.4ZM31.3,-10.6C23.6,-10.6 19.4,-17.4 19.4,-28C19.4,-38.5 23.6,-45.4 31.3,-45.4C38.9,-45.4 43.2,-38.5 43.2,-28C43.2,-17.4 38.9,-10.6 31.3,-10.6Z"></path><path transform="translate(705 200)" d="M7.9,-0L22.6,-0L22.6,-33.4C25.8,-41.5 31,-44.4 35.3,-44.4C37.7,-44.4 39.3,-44.1 41.3,-43.5L43.7,-56.2C42.1,-56.9 40.3,-57.4 37.2,-57.4C31.4,-57.4 25.4,-53.4 21.3,-46.1L21,-46.1L19.9,-56L7.9,-56L7.9,-0Z"></path><path transform="translate(749 200)" d=""></path><path transform="translate(772 200)" d="M16.1,-0L34.2,-0L42.3,-36.7C43.4,-42.4 44.5,-48.1 45.6,-53.7L46,-53.7C46.8,-48.1 47.9,-42.4 49.1,-36.7L57.4,-0L75.8,-0L89.5,-74.1L75.5,-74.1L69.6,-37.9C68.5,-30.2 67.4,-22.3 66.3,-14.3L65.8,-14.3C64.2,-22.3 62.8,-30.3 61.1,-37.9L52.5,-74.1L39.8,-74.1L31.3,-37.9C29.7,-30.2 28.1,-22.3 26.6,-14.3L26.2,-14.3C25.1,-22.3 23.9,-30.1 22.7,-37.9L17,-74.1L1.9,-74.1L16.1,-0Z"></path><path transform="translate(863 200)" d="M32.3,1.4C39.2,1.4 46.3,-1 51.8,-4.8L46.8,-13.8C42.7,-11.3 38.8,-10 34.3,-10C25.9,-10 19.9,-14.7 18.7,-23.8L53.2,-23.8C53.6,-25.2 53.9,-27.9 53.9,-30.6C53.9,-46.2 45.9,-57.4 30.5,-57.4C17.2,-57.4 4.4,-46.1 4.4,-28C4.4,-9.5 16.6,1.4 32.3,1.4ZM18.4,-33.7C19.6,-41.8 24.8,-46 30.7,-46C38,-46 41.3,-41.2 41.3,-33.7L18.4,-33.7Z"></path><path transform="translate(921 200)" d="M36,1.4C48.3,1.4 59.8,-9.7 59.8,-29C59.8,-46.1 51.5,-57.4 37.7,-57.4C32.2,-57.4 26.6,-54.7 22.1,-50.7L22.6,-59.7L22.6,-79.8L7.9,-79.8L7.9,-0L19.4,-0L20.6,-5.9L21.1,-5.9C25.6,-1.2 31,1.4 36,1.4ZM32.8,-10.7C29.7,-10.7 26,-11.8 22.6,-14.9L22.6,-39.6C26.4,-43.4 29.8,-45.3 33.6,-45.3C41.3,-45.3 44.7,-39.4 44.7,-28.7C44.7,-16.5 39.4,-10.7 32.8,-10.7Z"></path></svg>