<svg  xmlns="http://www.w3.org/2000/svg" xmlns:xlink="http://www.w3.org/1999/xlink" width="933" height="300" viewBox="0 0 957 324"><path transform="translate(0 100)" d="M45.8,-84L45.8,-66.1L9.6,-66.1L9.6,-18.6L17.1,-18.6L17.1,-24.8L45.8,-24.8L45.8,7.9L53.7,7.9L53.7,-24.8L82.5,-24.8L82.5,-19.1L90.2,-19.1L90.2,-66.1L53.7,-66.1L53.7,-84L45.8,-84ZM17.1,-32.2L17.1,-58.8L45.8,-58.8L45.8,-32.2L17.1,-32.2ZM82.5,-32.2L53.7,-32.2L53.7,-58.8L82.5,-58.8L82.5,-32.2Z"></path><path transform="translate(100 100)" d="M42.3,-82.3C45.3,-77.4 48.5,-70.7 49.7,-66.6L58,-69.3C56.6,-73.4 53.1,-79.9 50.1,-84.7L42.3,-82.3ZM5,-66.4L5,-59L20.6,-59C26.5,-43.8 34.4,-30.7 44.7,-20C33.7,-10.8 20.2,-4 3.6,0.7C5.1,2.5 7.5,6 8.3,7.8C25,2.4 38.9,-4.8 50.2,-14.6C61.5,-4.6 75.1,2.8 91.5,7.3C92.8,5.2 95,2 96.7,0.4C80.7,-3.6 67.1,-10.7 56,-20.1C66.1,-30.4 73.8,-43.2 79.6,-59L95.4,-59L95.4,-66.4L5,-66.4ZM50.4,-25.3C41,-34.8 33.6,-46.2 28.4,-59L71.1,-59C66.1,-45.5 59.2,-34.4 50.4,-25.3Z"></path><path transform="translate(200 100)" d="M19.4,-53.6C23.9,-48.1 28.8,-41.6 33.3,-35.2C29.5,-24.5 24.2,-15.5 17.2,-8.8C18.8,-7.9 21.8,-5.7 23,-4.6C29.1,-11 34,-19.1 37.9,-28.5C41.1,-23.8 43.8,-19.4 45.7,-15.7L50.6,-20.6C48.2,-24.9 44.7,-30.3 40.7,-36C43.5,-44.3 45.6,-53.4 47.2,-63.2L40.3,-64C39.2,-56.5 37.7,-49.4 35.8,-42.8C31.9,-48 27.9,-53.2 24,-57.8L19.4,-53.6ZM48.3,-53.5C52.9,-48 57.7,-41.5 62,-35C58,-24 52.6,-14.8 45.2,-8C46.9,-7.1 49.8,-4.9 51.1,-3.8C57.5,-10.3 62.5,-18.4 66.4,-28C69.9,-22.4 72.8,-17.1 74.7,-12.7L79.9,-17.1C77.6,-22.4 73.8,-29 69.3,-35.8C72,-44 74,-53.1 75.5,-63L68.7,-63.8C67.6,-56.4 66.2,-49.4 64.4,-42.8C60.8,-47.9 57,-52.9 53.2,-57.4L48.3,-53.5ZM8.8,-78L8.8,7.8L16.4,7.8L16.4,-70.8L84,-70.8L84,-2C84,-0.2 83.3,0.3 81.4,0.4C79.5,0.5 72.9,0.6 66.3,0.3C67.4,2.3 68.7,5.7 69.2,7.7C78.2,7.8 83.7,7.6 86.9,6.4C90.2,5.2 91.5,2.8 91.5,-2L91.5,-78L8.8,-78Z"></path><path transform="translate(300 100)" d="M46,-36.3L46,-30L6.9,-30L6.9,-22.8L46,-22.8L46,-1.4C46,-0 45.5,0.5 43.7,0.6C41.9,0.6 35.4,0.6 28.7,0.4C30,2.4 31.4,5.8 31.9,7.9C40.4,7.9 45.7,7.8 49.2,6.7C52.8,5.4 53.9,3.2 53.9,-1.2L53.9,-22.8L93,-22.8L93,-30L53.9,-30L53.9,-33.7C62.7,-38.4 71.7,-45.2 77.9,-51.6L72.8,-55.5L71.1,-55.1L23.3,-55.1L23.3,-48L63.5,-48C58.4,-43.6 51.9,-39.2 46,-36.3ZM42.4,-82.4C44.3,-79.8 46.2,-76.5 47.5,-73.6L8,-73.6L8,-52.9L15.4,-52.9L15.4,-66.4L84.3,-66.4L84.3,-52.9L92,-52.9L92,-73.6L56.3,-73.6C54.9,-76.9 52.3,-81.4 49.7,-84.7L42.4,-82.4Z"></path><path transform="translate(400 100)" d="M13.7,-77.5C19.3,-72.8 26.3,-66 29.5,-61.7L34.6,-67.3C31.2,-71.4 24.1,-77.8 18.6,-82.3L13.7,-77.5ZM4.6,-52.6L4.6,-45.2L20.5,-45.2L20.5,-9.3C20.5,-5 17.4,-2 15.5,-0.8C16.9,0.7 18.9,4.1 19.6,6.1C21.2,4 24,1.8 42.9,-11.6C42.1,-13 40.9,-16.2 40.4,-18.2L28.1,-9.8L28.1,-52.6L4.6,-52.6ZM62.6,-83.7L62.6,-50.8L37.2,-50.8L37.2,-43.1L62.6,-43.1L62.6,8L70.5,8L70.5,-43.1L95.9,-43.1L95.9,-50.8L70.5,-50.8L70.5,-83.7L62.6,-83.7Z"></path><path transform="translate(500 100)" d="M64.6,-73L64.6,-18.1L71.9,-18.1L71.9,-73L64.6,-73ZM84,-83L84,-1.7C84,-0 83.3,0.5 81.5,0.6C79.8,0.6 74.1,0.7 67.7,0.5C68.7,2.6 69.9,5.9 70.2,7.9C78.9,7.9 84,7.7 87.1,6.5C90.1,5.2 91.3,3.1 91.3,-1.8L91.3,-83L84,-83ZM30.9,-77.8C36.1,-73.6 42.3,-67.5 45.2,-63.5L50.5,-68.1C47.6,-72.1 41.2,-77.9 35.9,-81.8L30.9,-77.8ZM46.2,-47.7C42.8,-39.4 38.4,-31.7 33.1,-24.8C31,-32 29.2,-40.5 27.9,-49.9L59.5,-53.5L58.8,-60.6L27,-57C26.1,-65.5 25.6,-74.6 25.6,-83.9L17.9,-83.9C18,-74.4 18.6,-65.1 19.6,-56.1L3.6,-54.3L4.3,-47.2L20.5,-49C22.1,-37.5 24.4,-26.9 27.4,-18.1C20.5,-10.8 12.5,-4.7 3.8,-0.1C5.4,1.4 8,4.3 9.1,5.9C16.7,1.4 23.8,-4.1 30.2,-10.5C35,0.7 41,7.6 48,7.6C54.9,7.6 57.6,3.1 59,-12.1C57,-12.8 54.3,-14.4 52.7,-16.1C52.1,-4.4 50.9,0.2 48.4,0.2C44.2,0.2 39.7,-6.1 35.8,-16.6C42.9,-25 48.8,-34.7 53.4,-45.6L46.2,-47.7Z"></path><path transform="translate(0 200)" d="M25.3,-0L34.6,-0L34.6,-65.5L56.8,-65.5L56.8,-73.3L3.1,-73.3L3.1,-65.5L25.3,-65.5L25.3,-0Z"></path><path transform="translate(60 200)" d="M9.2,-0L18.4,-0L18.4,-39.4C23.8,-44.9 27.6,-47.7 33.2,-47.7C40.4,-47.7 43.5,-43.4 43.5,-33.2L43.5,-0L52.6,-0L52.6,-34.4C52.6,-48.2 47.4,-55.7 36,-55.7C28.6,-55.7 23,-51.6 18,-46.6L18.4,-57.8L18.4,-79.6L9.2,-79.6L9.2,-0Z"></path><path transform="translate(121 200)" d="M31.2,1.3C38.5,1.3 44.3,-1.1 49,-4.2L45.8,-10.3C41.7,-7.6 37.5,-6 32.2,-6C21.9,-6 14.8,-13.4 14.2,-25L50.8,-25C51,-26.4 51.2,-28.2 51.2,-30.2C51.2,-45.7 43.4,-55.7 29.5,-55.7C17.1,-55.7 5.2,-44.8 5.2,-27.1C5.2,-9.2 16.7,1.3 31.2,1.3ZM14.1,-31.5C15.2,-42.3 22,-48.4 29.7,-48.4C38.2,-48.4 43.2,-42.5 43.2,-31.5L14.1,-31.5Z"></path><path transform="translate(176 200)" d=""></path><path transform="translate(198 200)" d="M10.1,-0L19.3,-0L19.3,-29.2L31.4,-29.2C47.5,-29.2 58.4,-36.3 58.4,-51.8C58.4,-67.8 47.4,-73.3 31,-73.3L10.1,-73.3L10.1,-0ZM19.3,-36.7L19.3,-65.8L29.8,-65.8C42.7,-65.8 49.2,-62.5 49.2,-51.8C49.2,-41.3 43.1,-36.7 30.2,-36.7L19.3,-36.7Z"></path><path transform="translate(261 200)" d="M9.2,-0L18.4,-0L18.4,-34.9C22,-44.1 27.5,-47.5 32,-47.5C34.3,-47.5 35.5,-47.2 37.3,-46.6L39,-54.5C37.3,-55.4 35.6,-55.7 33.2,-55.7C27.2,-55.7 21.6,-51.3 17.8,-44.4L17.6,-44.4L16.7,-54.3L9.2,-54.3L9.2,-0Z"></path><path transform="translate(299 200)" d="M30.3,1.3C43.6,1.3 55.4,-9.1 55.4,-27.1C55.4,-45.2 43.6,-55.7 30.3,-55.7C17,-55.7 5.2,-45.2 5.2,-27.1C5.2,-9.1 17,1.3 30.3,1.3ZM30.3,-6.3C20.9,-6.3 14.6,-14.6 14.6,-27.1C14.6,-39.6 20.9,-48 30.3,-48C39.7,-48 46.1,-39.6 46.1,-27.1C46.1,-14.6 39.7,-6.3 30.3,-6.3Z"></path><path transform="translate(360 200)" d="M3.5,24.2C14.3,24.2 18.4,17.3 18.4,6.2L18.4,-54.3L9.3,-54.3L9.3,6.2C9.3,12.8 8,16.9 2.6,16.9C0.7,16.9 -1.2,16.4 -2.6,15.9L-4.4,22.8C-2.5,23.6 0.3,24.2 3.5,24.2ZM13.8,-65.5C17.3,-65.5 19.9,-67.9 19.9,-71.6C19.9,-75.1 17.3,-77.5 13.8,-77.5C10.2,-77.5 7.7,-75.1 7.7,-71.6C7.7,-67.9 10.2,-65.5 13.8,-65.5Z"></path><path transform="translate(387 200)" d="M31.2,1.3C38.5,1.3 44.3,-1.1 49,-4.2L45.8,-10.3C41.7,-7.6 37.5,-6 32.2,-6C21.9,-6 14.8,-13.4 14.2,-25L50.8,-25C51,-26.4 51.2,-28.2 51.2,-30.2C51.2,-45.7 43.4,-55.7 29.5,-55.7C17.1,-55.7 5.2,-44.8 5.2,-27.1C5.2,-9.2 16.7,1.3 31.2,1.3ZM14.1,-31.5C15.2,-42.3 22,-48.4 29.7,-48.4C38.2,-48.4 43.2,-42.5 43.2,-31.5L14.1,-31.5Z"></path><path transform="translate(442 200)" d="M30.6,1.3C37.1,1.3 43.3,-1.3 48.2,-5.5L44.2,-11.7C40.8,-8.7 36.4,-6.3 31.4,-6.3C21.4,-6.3 14.6,-14.6 14.6,-27.1C14.6,-39.6 21.8,-48 31.7,-48C35.9,-48 39.4,-46.1 42.5,-43.3L47.1,-49.3C43.3,-52.7 38.4,-55.7 31.3,-55.7C17.3,-55.7 5.2,-45.2 5.2,-27.1C5.2,-9.1 16.2,1.3 30.6,1.3Z"></path><path transform="translate(492 200)" d="M26.2,1.3C29.6,1.3 33.2,0.3 36.3,-0.7L34.5,-7.6C32.7,-6.8 30.3,-6.1 28.3,-6.1C22,-6.1 19.9,-9.9 19.9,-16.5L19.9,-46.9L34.7,-46.9L34.7,-54.3L19.9,-54.3L19.9,-69.6L12.3,-69.6L11.3,-54.3L2.7,-53.8L2.7,-46.9L10.8,-46.9L10.8,-16.8C10.8,-5.9 14.7,1.3 26.2,1.3Z"></path><path transform="translate(530 200)" d=""></path><path transform="translate(552 200)" d="M10.1,-0L19.3,-0L19.3,-32.9L47.3,-32.9L47.3,-40.7L19.3,-40.7L19.3,-65.5L52.3,-65.5L52.3,-73.3L10.1,-73.3L10.1,-0Z"></path><path transform="translate(606 200)" d="M30.3,1.3C43.6,1.3 55.4,-9.1 55.4,-27.1C55.4,-45.2 43.6,-55.7 30.3,-55.7C17,-55.7 5.2,-45.2 5.2,-27.1C5.2,-9.1 17,1.3 30.3,1.3ZM30.3,-6.3C20.9,-6.3 14.6,-14.6 14.6,-27.1C14.6,-39.6 20.9,-48 30.3,-48C39.7,-48 46.1,-39.6 46.1,-27.1C46.1,-14.6 39.7,-6.3 30.3,-6.3Z"></path><path transform="translate(667 200)" d="M9.2,-0L18.4,-0L18.4,-34.9C22,-44.1 27.5,-47.5 32,-47.5C34.3,-47.5 35.5,-47.2 37.3,-46.6L39,-54.5C37.3,-55.4 35.6,-55.7 33.2,-55.7C27.2,-55.7 21.6,-51.3 17.8,-44.4L17.6,-44.4L16.7,-54.3L9.2,-54.3L9.2,-0Z"></path><path transform="translate(706 200)" d=""></path><path transform="translate(728 200)" d="M18.1,-0L29.1,-0L40,-44.2C41.2,-50 42.6,-55.3 43.7,-60.9L44.1,-60.9C45.3,-55.3 46.4,-50 47.7,-44.2L58.8,-0L70,-0L85.1,-73.3L76.3,-73.3L68.4,-33.4C67.1,-25.5 65.7,-17.6 64.4,-9.6L63.8,-9.6C62,-17.6 60.4,-25.6 58.6,-33.4L48.4,-73.3L39.9,-73.3L29.8,-33.4C28,-25.5 26.2,-17.6 24.6,-9.6L24.2,-9.6C22.7,-17.6 21.3,-25.5 19.8,-33.4L12.1,-73.3L2.6,-73.3L18.1,-0Z"></path><path transform="translate(816 200)" d="M31.2,1.3C38.5,1.3 44.3,-1.1 49,-4.2L45.8,-10.3C41.7,-7.6 37.5,-6 32.2,-6C21.9,-6 14.8,-13.4 14.2,-25L50.8,-25C51,-26.4 51.2,-28.2 51.2,-30.2C51.2,-45.7 43.4,-55.7 29.5,-55.7C17.1,-55.7 5.2,-44.8 5.2,-27.1C5.2,-9.2 16.7,1.3 31.2,1.3ZM14.1,-31.5C15.2,-42.3 22,-48.4 29.7,-48.4C38.2,-48.4 43.2,-42.5 43.2,-31.5L14.1,-31.5Z"></path><path transform="translate(871 200)" d="M33.1,1.3C45.5,1.3 56.7,-9.4 56.7,-28C56.7,-44.8 49.1,-55.7 35.1,-55.7C29,-55.7 23,-52.3 18,-48.1L18.4,-57.8L18.4,-79.6L9.2,-79.6L9.2,-0L16.5,-0L17.3,-5.6L17.7,-5.6C22.4,-1.3 28.1,1.3 33.1,1.3ZM31.6,-6.4C28,-6.4 23.1,-7.8 18.4,-12L18.4,-40.6C23.5,-45.4 28.3,-48 32.8,-48C43.2,-48 47.2,-40 47.2,-27.9C47.2,-14.5 40.6,-6.4 31.6,-6.4Z"></path></svg>